<?xml version="1.0" encoding="UTF-8" standalone="no"?>
<!-- Created with Inkscape (http://www.inkscape.org/) -->

<svg
   width="595.15051"
   height="595.15039"
   viewBox="0 0 157.46691 157.46687"
   version="1.1"
   id="svg1"
   xml:space="preserve"
   xmlns="http://www.w3.org/2000/svg"
   xmlns:svg="http://www.w3.org/2000/svg"><defs
     id="defs1" /><g
     id="layer1"
     transform="translate(397.69189,-1359.0686)"><rect
       x="-397.69186"
       y="1359.0686"
       class="st2"
       width="157.46689"
       height="157.46689"
       id="rect8"
       style="fill:#2baae2;stroke-width:0.973038" /><g
       id="g12"
       transform="matrix(0.9730389,0,0,0.9730389,-529.56779,1068.8986)">
	<g
   id="g11">
		<path
   class="st1"
   d="m 198.64,359.39 -0.06,11.56 c 0,1.75 -0.06,3.45 -0.17,4.96 -0.34,5.2 -2.12,8.7 -5.62,11.15 -2.87,1.98 -6.65,3.04 -11.17,3.04 -3.21,0 -6.07,-0.47 -8.54,-1.58 -1.78,-0.7 -3.38,-1.69 -4.64,-3.04 -2.35,-2.63 -3.27,-5.9 -3.21,-11.74 l 0.06,-4.38 0.06,-10.68 c 0,-2.86 -0.17,-4.9 -0.46,-6.07 -0.29,-1.23 -1.15,-1.81 -2.81,-1.81 h -0.57 l 1.09,-2.45 1.43,0.06 h 5.33 l 1.83,-0.12 c -0.23,1.93 -0.34,3.33 -0.4,4.32 0,0.76 0,2.86 -0.06,6.25 l -0.11,11.62 v 0.93 c 0,5.37 0.23,7.06 1.15,9.22 1.49,3.45 5.5,5.61 10.31,5.61 2.81,0 5.33,-0.64 7.33,-1.81 1.6,-0.99 2.87,-2.39 3.55,-3.97 0.97,-2.34 1.2,-4.79 1.2,-10.57 l 0.06,-10.51 c 0.06,-5.31 -0.34,-8.52 -1.15,-11.03 l 1.49,0.06 h 3.21 l 1.6,-0.06 c -0.56,4.15 -0.67,5.38 -0.73,11.04 z"
   id="path9"
   style="fill:#ffffff" />
		<path
   class="st1"
   d="m 237.04,351.16 -0.69,2.34 -0.46,1.75 h -0.8 c -2.69,-3.21 -5.79,-4.55 -10.37,-4.55 -9.34,0 -15.13,6.54 -15.13,17.11 0,10.92 6.42,18.22 16.05,18.22 1.66,0 3.38,-0.29 5.1,-0.7 2.46,-0.64 3.44,-1.05 5.73,-2.74 l 0.69,0.53 -0.52,1.4 -0.63,1.93 -0.52,1.81 c -2.69,0.7 -3.72,0.88 -5.1,1.11 -1.72,0.23 -4.01,0.41 -5.84,0.41 -4.07,0 -7.74,-0.76 -10.6,-2.22 -6.42,-3.27 -10.66,-10.74 -10.66,-18.92 0,-6.31 2.64,-12.09 7.16,-16 4.18,-3.56 9.46,-5.2 16.5,-5.2 1.6,0 3.15,0.12 4.81,0.35 2.18,0.29 3.27,0.58 5.9,1.46 z"
   id="path10"
   style="fill:#ffffff" />
		<path
   class="st1"
   d="m 275.91,388.99 -1.49,0.06 -4.36,0.12 -2.41,0.18 c -0.29,-0.47 -0.52,-0.82 -0.69,-1.05 -0.11,-0.17 -0.34,-0.64 -0.74,-1.34 -0.29,-0.58 -0.69,-1.34 -1.2,-2.22 -2.69,-4.67 -4.7,-7.71 -8.02,-12.32 -1.83,-2.57 -2.81,-3.27 -4.35,-3.27 h -0.57 l 0.34,-1.46 0.23,-1.4 c 2.75,-0.06 3.78,-0.18 5.21,-0.76 2.75,-1.05 4.41,-3.85 4.41,-7.24 0,-4.5 -2.86,-7.24 -7.68,-7.24 -1.03,0 -1.95,0.06 -4.07,0.35 -0.11,2.45 -0.17,3.04 -0.17,7.47 l -0.06,19.09 c 0,5.31 0.34,8.52 1.15,11.04 l -1.49,-0.12 h -4.18 l -1.6,0.12 c 0.63,-4.15 0.74,-5.55 0.74,-11.09 l 0.06,-19.21 c 0,-2.86 -0.11,-4.9 -0.4,-6.07 -0.29,-1.23 -1.15,-1.81 -2.81,-1.81 h -0.57 l 1.09,-2.45 4.58,0.12 5.44,-0.18 c 1.49,-0.06 2.81,-0.06 4.07,-0.06 4.87,0 6.65,0.47 8.6,2.04 1.89,1.58 2.92,4.03 2.92,6.89 0,2.45 -0.8,4.73 -2.29,6.36 -1.26,1.34 -2.86,2.45 -5.62,3.91 l 1.32,1.81 5.79,8.64 c 2.69,4.09 4.64,6.71 6.42,8.52 0.92,0.93 1.32,1.28 2.46,2.16 z"
   id="path11"
   style="fill:#ffffff" />
	</g>
	<path
   class="st1"
   d="m 285.68,402.23 c 0,0 -26.41,-6.2 -66.98,-6.2 -34.45,0 -66.91,6.2 -66.91,6.2 v 1.62 c 0,0 32.6,-3.04 66.92,-3.04 41.35,0 66.97,3.04 66.97,3.04 z"
   id="path12"
   style="fill:#ffffff" />
</g></g></svg>
